<svg xmlns="http://www.w3.org/2000/svg" viewBox="0 0 1000 1000" xml:space="preserve"><switch><g><circle fill="#382B73" cx="500" cy="500" r="398"/><circle fill="#473080" cx="500" cy="500" r="344.3"/><path fill="#382B73" d="M655.5 348.5h-28v-28c0-8.3-6.7-15-15-15h-268c-8.3 0-15 6.7-15 15v356c0 8.3 6.7 15 15 15h28v28c0 8.3 6.7 15 15 15h268c8.3 0 15-6.7 15-15v-356c0-8.3-6.7-15-15-15z"/><g><path fill="#EF5A9D" d="M612.5 671.5h-268c-8.3 0-15-6.7-15-15v-356c0-8.3 6.7-15 15-15h268c8.3 0 15 6.7 15 15v356c0 8.3-6.7 15-15 15z"/><path fill="#FFF" d="M655.5 714.5h-268c-8.3 0-15-6.7-15-15v-356c0-8.3 6.7-15 15-15h268c8.3 0 15 6.7 15 15v356c0 8.3-6.7 15-15 15z"/><circle fill="#D1D3D4" cx="465.4" cy="634.2" r="55.3"/><circle fill="#F7CB15" cx="465.4" cy="624.2" r="55.3"/><circle fill="#FEDE3A" cx="465.4" cy="624.2" r="45.5"/><circle fill="#E6E7E8" cx="558.2" cy="598" r="8.4"/><circle fill="#FEDE3A" cx="558.2" cy="593" r="8.4"/><path fill="#F7CB15" d="M558.2 593c-3.1 0-5.8-1.7-7.3-4.2-.7 1.2-1.1 2.7-1.1 4.2 0 4.7 3.8 8.4 8.4 8.4 4.7 0 8.4-3.8 8.4-8.4 0-1.5-.4-3-1.1-4.2-1.4 2.5-4.1 4.2-7.3 4.2z"/><circle fill="#E6E7E8" cx="558.2" cy="629.2" r="8.4"/><circle fill="#1CAEE4" cx="558.2" cy="624.2" r="8.4"/><path fill="#009ADD" d="M558.2 624.2c-3.1 0-5.8-1.7-7.3-4.2-.7 1.2-1.1 2.7-1.1 4.2 0 4.7 3.8 8.4 8.4 8.4 4.7 0 8.4-3.8 8.4-8.4 0-1.5-.4-3-1.1-4.2-1.4 2.5-4.1 4.2-7.3 4.2zM465.4 569v55.3h55.3c-.1-30.6-24.8-55.3-55.3-55.3z"/><path fill="#27C1E6" d="M472.4 617.2v-47.8c-2.3-.3-4.6-.5-7-.5v55.3h55.3c0-2.4-.2-4.7-.5-7h-47.8z"/><path fill="#E6E7E8" d="M625.9 606.7h-39.2c-4.8 0-8.7-3.9-8.7-8.7 0-4.8 3.9-8.7 8.7-8.7h39.2c4.8 0 8.7 3.9 8.7 8.7.1 4.8-3.8 8.7-8.7 8.7z"/><path fill="#D1D3D4" d="M625.9 601.7h-39.2c-4.8 0-8.7-3.9-8.7-8.7 0-4.8 3.9-8.7 8.7-8.7h39.2c4.8 0 8.7 3.9 8.7 8.7.1 4.8-3.8 8.7-8.7 8.7z"/><path fill="#BCBEC0" d="M625.9 593.3h-39.2c-3.3 0-6.2-1.8-7.6-4.5-.7 1.2-1.1 2.7-1.1 4.2 0 4.8 3.9 8.7 8.7 8.7h39.2c4.8 0 8.7-3.9 8.7-8.7 0-1.5-.4-3-1.1-4.2-1.4 2.7-4.3 4.5-7.6 4.5z"/><path fill="#E6E7E8" d="M625.9 684.5h-67.4c-4.8 0-8.7-3.9-8.7-8.7 0-4.8 3.9-8.7 8.7-8.7h67.4c4.8 0 8.7 3.9 8.7 8.7.1 4.8-3.8 8.7-8.7 8.7z"/><path fill="#D1D3D4" d="M625.9 679.5h-67.4c-4.8 0-8.7-3.9-8.7-8.7 0-4.8 3.9-8.7 8.7-8.7h67.4c4.8 0 8.7 3.9 8.7 8.7.1 4.8-3.8 8.7-8.7 8.7z"/><path fill="#BCBEC0" d="M625.9 671.5h-67.4c-3.4 0-6.3-1.9-7.8-4.7-.6 1.2-1 2.6-1 4 0 4.8 3.9 8.7 8.7 8.7h67.4c4.8 0 8.7-3.9 8.7-8.7 0-1.4-.4-2.8-1-4-1.3 2.8-4.2 4.7-7.6 4.7z"/><path fill="#E6E7E8" d="M625.9 638h-39.2c-4.8 0-8.7-3.9-8.7-8.7 0-4.8 3.9-8.7 8.7-8.7h39.2c4.8 0 8.7 3.9 8.7 8.7.1 4.8-3.8 8.7-8.7 8.7z"/><path fill="#D1D3D4" d="M625.9 633h-39.2c-4.8 0-8.7-3.9-8.7-8.7 0-4.8 3.9-8.7 8.7-8.7h39.2c4.8 0 8.7 3.9 8.7 8.7.1 4.8-3.8 8.7-8.7 8.7z"/><path fill="#BCBEC0" d="M625.9 624.2h-39.2c-3.2 0-6-1.8-7.6-4.4-.7 1.3-1.2 2.8-1.2 4.4 0 4.8 3.9 8.7 8.7 8.7h39.2c4.8 0 8.7-3.9 8.7-8.7 0-1.6-.4-3.1-1.2-4.4-1.3 2.7-4.1 4.4-7.4 4.4z"/><g><path fill="#E6E7E8" d="M619.7 545.2H425.1c-8.3 0-15-6.7-15-15V426.8c0-8.3 6.7-15 15-15h194.6c8.3 0 15 6.7 15 15v103.3c0 8.4-6.7 15.1-15 15.1z"/></g><g><path fill="#D1D3D4" d="M619.7 411.8H425.1c-8.3 0-15 6.7-15 15v10c0-8.3 6.7-15 15-15h194.6c8.3 0 15 6.7 15 15v-10c0-8.2-6.7-15-15-15z"/></g><g><path fill="#EF5A9D" d="M455.2 500h-22.9c-2.8 0-5 2.2-5 5v40.2h32.9V505c0-2.8-2.2-5-5-5z"/></g><g><path fill="#F06EA9" d="M455.2 500h-22.9c-2.8 0-5 2.2-5 5v10c0-2.8 2.2-5 5-5h22.9c2.8 0 5 2.2 5 5v-10c0-2.8-2.2-5-5-5z"/></g><g><path fill="#FEDE3A" d="M508.3 478.5h-22.9c-2.8 0-5 2.2-5 5v61.7h32.9v-61.7c0-2.7-2.2-5-5-5z"/></g><g><path fill="#FFF335" d="M508.3 478.5h-22.9c-2.8 0-5 2.2-5 5v10c0-2.8 2.2-5 5-5h22.9c2.8 0 5 2.2 5 5v-10c0-2.7-2.2-5-5-5z"/></g><g><path fill="#EF5A9D" d="M561.4 457h-22.9c-2.8 0-5 2.2-5 5v83.2h32.9V462c0-2.8-2.2-5-5-5z"/></g><g><path fill="#F06EA9" d="M561.4 457h-22.9c-2.8 0-5 2.2-5 5v10c0-2.8 2.2-5 5-5h22.9c2.8 0 5 2.2 5 5v-10c0-2.8-2.2-5-5-5z"/></g><g><path fill="#1CAEE4" d="M614.5 435h-22.9c-2.8 0-5 2.2-5 5v105.2h32.9V440c0-2.8-2.2-5-5-5z"/></g><g><path fill="#27C1E6" d="M614.5 435h-22.9c-2.8 0-5 2.2-5 5v10c0-2.8 2.2-5 5-5h22.9c2.8 0 5 2.2 5 5v-10c0-2.8-2.2-5-5-5z"/></g><g><path fill="#E6E7E8" d="M625.9 394.5H418.8c-4.8 0-8.7-3.9-8.7-8.7 0-4.8 3.9-8.7 8.7-8.7h207.1c4.8 0 8.7 3.9 8.7 8.7.1 4.8-3.8 8.7-8.7 8.7z"/></g><g><path fill="#1CAEE4" d="M625.9 384.5H418.8c-4.8 0-8.7-3.9-8.7-8.7 0-4.8 3.9-8.7 8.7-8.7h207.1c4.8 0 8.7 3.9 8.7 8.7.1 4.8-3.8 8.7-8.7 8.7z"/></g><g><path fill="#009ADD" d="M625.9 377.1H418.8c-3.5 0-6.5-2-7.9-5-.5 1.1-.8 2.4-.8 3.7 0 4.8 3.9 8.7 8.7 8.7h207.1c4.8 0 8.7-3.9 8.7-8.7 0-1.3-.3-2.6-.8-3.7-1.4 2.9-4.4 5-7.9 5z"/></g><g><path fill="#1CAEE4" d="M520.2 617.2h-47.8l-7 7h55.3c-.1-2.3-.2-4.7-.5-7z"/></g><g><path fill="#009ADD" d="M586.6 528h32.9v17.2h-32.9z"/></g><g><path fill="#E43D91" d="M533.4 528h32.9v17.2h-32.9z"/></g><g><path fill="#F7CB15" d="M480.4 528h32.9v17.2h-32.9z"/></g><g><path fill="#E43D91" d="M427.3 528h32.9v17.2h-32.9z"/></g></g></g></switch></svg>